<svg width="48" height="20" viewBox="0 0 48 20" fill="none" xmlns="http://www.w3.org/2000/svg">
<path d="M4 18H44V0H4V18Z" fill="#F83B3B"/>
<path d="M4 18H46V2H4V18Z" fill="#F83B3B"/>
<path d="M2 16H48V4H2V16Z" fill="#F83B3B"/>
<path d="M4 20H44V18H4V20Z" fill="#1A1B23"/>
<path d="M44 16V18H46V16H44Z" fill="#1A1B23"/>
<path d="M2 4V16H0V4H2Z" fill="#1A1B23"/>
<path d="M4 16V18H2V16H4Z" fill="#1A1B23"/>
<path d="M4 2V4H2V2H4Z" fill="#1A1B23"/>
<path d="M6 18H42V17H6V18Z" fill="white"/>
<mask id="path-2-outside-1_133_25248" maskUnits="userSpaceOnUse" x="8" y="2" width="34" height="13" fill="black">
<rect fill="white" x="8" y="2" width="34" height="13"/>
<path d="M15.4297 5.11328H16.1133V6.48047H14.7461V5.79688H14.0625V5.11328H11.3281V5.79688H10.6445V7.16406H11.3281V7.84766H14.7461V8.53125H15.4297V9.21484H16.1133V11.9492H15.4297V12.6328H14.7461V13.3164H10.6445V12.6328H9.96094V11.9492H9.27734V10.582H10.6445V11.2656H11.3281V11.9492H14.0625V11.2656H14.7461V9.89844H14.0625V9.21484H10.6445V8.53125H9.96094V7.84766H9.27734V5.11328H9.96094V4.42969H10.6445V3.74609H14.7461V4.42969H15.4297V5.11328ZM19.5312 11.9492H22.2656V11.2656H22.9492V9.89844H22.2656V9.21484H19.5312V9.89844H18.8477V11.2656H19.5312V11.9492ZM18.8477 13.3164V12.6328H18.1641V11.9492H17.4805V9.21484H18.1641V8.53125H18.8477V7.84766H22.2656V8.53125H22.9492V7.16406H22.2656V6.48047H18.8477V5.11328H22.9492V5.79688H23.6328V6.48047H24.3164V13.3164H22.9492V12.6328H22.2656V13.3164H18.8477ZM29.7852 4.42969V5.79688H28.418V4.42969H29.7852ZM30.4688 11.9492H31.1523V13.3164H29.7852V12.6328H29.1016V11.9492H28.418V8.53125H27.0508V7.16406H29.7852V11.2656H30.4688V11.9492ZM35.2539 9.21484V13.3164H33.8867V5.79688H35.2539V7.16406H35.9375V6.48047H36.6211V5.79688H39.3555V6.48047H40.0391V7.16406H40.7227V8.53125H39.3555V7.84766H38.6719V7.16406H37.3047V7.84766H36.6211V8.53125H35.9375V9.21484H35.2539Z"/>
</mask>
<path d="M15.4297 5.11328H16.1133V6.48047H14.7461V5.79688H14.0625V5.11328H11.3281V5.79688H10.6445V7.16406H11.3281V7.84766H14.7461V8.53125H15.4297V9.21484H16.1133V11.9492H15.4297V12.6328H14.7461V13.3164H10.6445V12.6328H9.96094V11.9492H9.27734V10.582H10.6445V11.2656H11.3281V11.9492H14.0625V11.2656H14.7461V9.89844H14.0625V9.21484H10.6445V8.53125H9.96094V7.84766H9.27734V5.11328H9.96094V4.42969H10.6445V3.74609H14.7461V4.42969H15.4297V5.11328ZM19.5312 11.9492H22.2656V11.2656H22.9492V9.89844H22.2656V9.21484H19.5312V9.89844H18.8477V11.2656H19.5312V11.9492ZM18.8477 13.3164V12.6328H18.1641V11.9492H17.4805V9.21484H18.1641V8.53125H18.8477V7.84766H22.2656V8.53125H22.9492V7.16406H22.2656V6.48047H18.8477V5.11328H22.9492V5.79688H23.6328V6.48047H24.3164V13.3164H22.9492V12.6328H22.2656V13.3164H18.8477ZM29.7852 4.42969V5.79688H28.418V4.42969H29.7852ZM30.4688 11.9492H31.1523V13.3164H29.7852V12.6328H29.1016V11.9492H28.418V8.53125H27.0508V7.16406H29.7852V11.2656H30.4688V11.9492ZM35.2539 9.21484V13.3164H33.8867V5.79688H35.2539V7.16406H35.9375V6.48047H36.6211V5.79688H39.3555V6.48047H40.0391V7.16406H40.7227V8.53125H39.3555V7.84766H38.6719V7.16406H37.3047V7.84766H36.6211V8.53125H35.9375V9.21484H35.2539Z" fill="white"/>
<path d="M15.4297 5.11328H14.4297V6.11328H15.4297V5.11328ZM16.1133 5.11328H17.1133V4.11328H16.1133V5.11328ZM16.1133 6.48047V7.48047H17.1133V6.48047H16.1133ZM14.7461 6.48047H13.7461V7.48047H14.7461V6.48047ZM14.7461 5.79688H15.7461V4.79688H14.7461V5.79688ZM14.0625 5.79688H13.0625V6.79688H14.0625V5.79688ZM14.0625 5.11328H15.0625V4.11328H14.0625V5.11328ZM11.3281 5.11328V4.11328H10.3281V5.11328H11.3281ZM11.3281 5.79688V6.79688H12.3281V5.79688H11.3281ZM10.6445 5.79688V4.79688H9.64453V5.79688H10.6445ZM10.6445 7.16406H9.64453V8.16406H10.6445V7.16406ZM11.3281 7.16406H12.3281V6.16406H11.3281V7.16406ZM11.3281 7.84766H10.3281V8.84766H11.3281V7.84766ZM14.7461 7.84766H15.7461V6.84766H14.7461V7.84766ZM14.7461 8.53125H13.7461V9.53125H14.7461V8.53125ZM15.4297 8.53125H16.4297V7.53125H15.4297V8.53125ZM15.4297 9.21484H14.4297V10.2148H15.4297V9.21484ZM16.1133 9.21484H17.1133V8.21484H16.1133V9.21484ZM16.1133 11.9492V12.9492H17.1133V11.9492H16.1133ZM15.4297 11.9492V10.9492H14.4297V11.9492H15.4297ZM15.4297 12.6328V13.6328H16.4297V12.6328H15.4297ZM14.7461 12.6328V11.6328H13.7461V12.6328H14.7461ZM14.7461 13.3164V14.3164H15.7461V13.3164H14.7461ZM10.6445 13.3164H9.64453V14.3164H10.6445V13.3164ZM10.6445 12.6328H11.6445V11.6328H10.6445V12.6328ZM9.96094 12.6328H8.96094V13.6328H9.96094V12.6328ZM9.96094 11.9492H10.9609V10.9492H9.96094V11.9492ZM9.27734 11.9492H8.27734V12.9492H9.27734V11.9492ZM9.27734 10.582V9.58203H8.27734V10.582H9.27734ZM10.6445 10.582H11.6445V9.58203H10.6445V10.582ZM10.6445 11.2656H9.64453V12.2656H10.6445V11.2656ZM11.3281 11.2656H12.3281V10.2656H11.3281V11.2656ZM11.3281 11.9492H10.3281V12.9492H11.3281V11.9492ZM14.0625 11.9492V12.9492H15.0625V11.9492H14.0625ZM14.0625 11.2656V10.2656H13.0625V11.2656H14.0625ZM14.7461 11.2656V12.2656H15.7461V11.2656H14.7461ZM14.7461 9.89844H15.7461V8.89844H14.7461V9.89844ZM14.0625 9.89844H13.0625V10.8984H14.0625V9.89844ZM14.0625 9.21484H15.0625V8.21484H14.0625V9.21484ZM10.6445 9.21484H9.64453V10.2148H10.6445V9.21484ZM10.6445 8.53125H11.6445V7.53125H10.6445V8.53125ZM9.96094 8.53125H8.96094V9.53125H9.96094V8.53125ZM9.96094 7.84766H10.9609V6.84766H9.96094V7.84766ZM9.27734 7.84766H8.27734V8.84766H9.27734V7.84766ZM9.27734 5.11328V4.11328H8.27734V5.11328H9.27734ZM9.96094 5.11328V6.11328H10.9609V5.11328H9.96094ZM9.96094 4.42969V3.42969H8.96094V4.42969H9.96094ZM10.6445 4.42969V5.42969H11.6445V4.42969H10.6445ZM10.6445 3.74609V2.74609H9.64453V3.74609H10.6445ZM14.7461 3.74609H15.7461V2.74609H14.7461V3.74609ZM14.7461 4.42969H13.7461V5.42969H14.7461V4.42969ZM15.4297 4.42969H16.4297V3.42969H15.4297V4.42969ZM15.4297 6.11328H16.1133V4.11328H15.4297V6.11328ZM15.1133 5.11328V6.48047H17.1133V5.11328H15.1133ZM16.1133 5.48047H14.7461V7.48047H16.1133V5.48047ZM15.7461 6.48047V5.79688H13.7461V6.48047H15.7461ZM14.7461 4.79688H14.0625V6.79688H14.7461V4.79688ZM15.0625 5.79688V5.11328H13.0625V5.79688H15.0625ZM14.0625 4.11328H11.3281V6.11328H14.0625V4.11328ZM10.3281 5.11328V5.79688H12.3281V5.11328H10.3281ZM11.3281 4.79688H10.6445V6.79688H11.3281V4.79688ZM9.64453 5.79688V7.16406H11.6445V5.79688H9.64453ZM10.6445 8.16406H11.3281V6.16406H10.6445V8.16406ZM10.3281 7.16406V7.84766H12.3281V7.16406H10.3281ZM11.3281 8.84766H14.7461V6.84766H11.3281V8.84766ZM13.7461 7.84766V8.53125H15.7461V7.84766H13.7461ZM14.7461 9.53125H15.4297V7.53125H14.7461V9.53125ZM14.4297 8.53125V9.21484H16.4297V8.53125H14.4297ZM15.4297 10.2148H16.1133V8.21484H15.4297V10.2148ZM15.1133 9.21484V11.9492H17.1133V9.21484H15.1133ZM16.1133 10.9492H15.4297V12.9492H16.1133V10.9492ZM14.4297 11.9492V12.6328H16.4297V11.9492H14.4297ZM15.4297 11.6328H14.7461V13.6328H15.4297V11.6328ZM13.7461 12.6328V13.3164H15.7461V12.6328H13.7461ZM14.7461 12.3164H10.6445V14.3164H14.7461V12.3164ZM11.6445 13.3164V12.6328H9.64453V13.3164H11.6445ZM10.6445 11.6328H9.96094V13.6328H10.6445V11.6328ZM10.9609 12.6328V11.9492H8.96094V12.6328H10.9609ZM9.96094 10.9492H9.27734V12.9492H9.96094V10.9492ZM10.2773 11.9492V10.582H8.27734V11.9492H10.2773ZM9.27734 11.582H10.6445V9.58203H9.27734V11.582ZM9.64453 10.582V11.2656H11.6445V10.582H9.64453ZM10.6445 12.2656H11.3281V10.2656H10.6445V12.2656ZM10.3281 11.2656V11.9492H12.3281V11.2656H10.3281ZM11.3281 12.9492H14.0625V10.9492H11.3281V12.9492ZM15.0625 11.9492V11.2656H13.0625V11.9492H15.0625ZM14.0625 12.2656H14.7461V10.2656H14.0625V12.2656ZM15.7461 11.2656V9.89844H13.7461V11.2656H15.7461ZM14.7461 8.89844H14.0625V10.8984H14.7461V8.89844ZM15.0625 9.89844V9.21484H13.0625V9.89844H15.0625ZM14.0625 8.21484H10.6445V10.2148H14.0625V8.21484ZM11.6445 9.21484V8.53125H9.64453V9.21484H11.6445ZM10.6445 7.53125H9.96094V9.53125H10.6445V7.53125ZM10.9609 8.53125V7.84766H8.96094V8.53125H10.9609ZM9.96094 6.84766H9.27734V8.84766H9.96094V6.84766ZM10.2773 7.84766V5.11328H8.27734V7.84766H10.2773ZM9.27734 6.11328H9.96094V4.11328H9.27734V6.11328ZM10.9609 5.11328V4.42969H8.96094V5.11328H10.9609ZM9.96094 5.42969H10.6445V3.42969H9.96094V5.42969ZM11.6445 4.42969V3.74609H9.64453V4.42969H11.6445ZM10.6445 4.74609H14.7461V2.74609H10.6445V4.74609ZM13.7461 3.74609V4.42969H15.7461V3.74609H13.7461ZM14.7461 5.42969H15.4297V3.42969H14.7461V5.42969ZM14.4297 4.42969V5.11328H16.4297V4.42969H14.4297ZM19.5312 11.9492H18.5312V12.9492H19.5312V11.9492ZM22.2656 11.9492V12.9492H23.2656V11.9492H22.2656ZM22.2656 11.2656V10.2656H21.2656V11.2656H22.2656ZM22.9492 11.2656V12.2656H23.9492V11.2656H22.9492ZM22.9492 9.89844H23.9492V8.89844H22.9492V9.89844ZM22.2656 9.89844H21.2656V10.8984H22.2656V9.89844ZM22.2656 9.21484H23.2656V8.21484H22.2656V9.21484ZM19.5312 9.21484V8.21484H18.5312V9.21484H19.5312ZM19.5312 9.89844V10.8984H20.5312V9.89844H19.5312ZM18.8477 9.89844V8.89844H17.8477V9.89844H18.8477ZM18.8477 11.2656H17.8477V12.2656H18.8477V11.2656ZM19.5312 11.2656H20.5312V10.2656H19.5312V11.2656ZM18.8477 13.3164H17.8477V14.3164H18.8477V13.3164ZM18.8477 12.6328H19.8477V11.6328H18.8477V12.6328ZM18.1641 12.6328H17.1641V13.6328H18.1641V12.6328ZM18.1641 11.9492H19.1641V10.9492H18.1641V11.9492ZM17.4805 11.9492H16.4805V12.9492H17.4805V11.9492ZM17.4805 9.21484V8.21484H16.4805V9.21484H17.4805ZM18.1641 9.21484V10.2148H19.1641V9.21484H18.1641ZM18.1641 8.53125V7.53125H17.1641V8.53125H18.1641ZM18.8477 8.53125V9.53125H19.8477V8.53125H18.8477ZM18.8477 7.84766V6.84766H17.8477V7.84766H18.8477ZM22.2656 7.84766H23.2656V6.84766H22.2656V7.84766ZM22.2656 8.53125H21.2656V9.53125H22.2656V8.53125ZM22.9492 8.53125V9.53125H23.9492V8.53125H22.9492ZM22.9492 7.16406H23.9492V6.16406H22.9492V7.16406ZM22.2656 7.16406H21.2656V8.16406H22.2656V7.16406ZM22.2656 6.48047H23.2656V5.48047H22.2656V6.48047ZM18.8477 6.48047H17.8477V7.48047H18.8477V6.48047ZM18.8477 5.11328V4.11328H17.8477V5.11328H18.8477ZM22.9492 5.11328H23.9492V4.11328H22.9492V5.11328ZM22.9492 5.79688H21.9492V6.79688H22.9492V5.79688ZM23.6328 5.79688H24.6328V4.79688H23.6328V5.79688ZM23.6328 6.48047H22.6328V7.48047H23.6328V6.48047ZM24.3164 6.48047H25.3164V5.48047H24.3164V6.48047ZM24.3164 13.3164V14.3164H25.3164V13.3164H24.3164ZM22.9492 13.3164H21.9492V14.3164H22.9492V13.3164ZM22.9492 12.6328H23.9492V11.6328H22.9492V12.6328ZM22.2656 12.6328V11.6328H21.2656V12.6328H22.2656ZM22.2656 13.3164V14.3164H23.2656V13.3164H22.2656ZM19.5312 12.9492H22.2656V10.9492H19.5312V12.9492ZM23.2656 11.9492V11.2656H21.2656V11.9492H23.2656ZM22.2656 12.2656H22.9492V10.2656H22.2656V12.2656ZM23.9492 11.2656V9.89844H21.9492V11.2656H23.9492ZM22.9492 8.89844H22.2656V10.8984H22.9492V8.89844ZM23.2656 9.89844V9.21484H21.2656V9.89844H23.2656ZM22.2656 8.21484H19.5312V10.2148H22.2656V8.21484ZM18.5312 9.21484V9.89844H20.5312V9.21484H18.5312ZM19.5312 8.89844H18.8477V10.8984H19.5312V8.89844ZM17.8477 9.89844V11.2656H19.8477V9.89844H17.8477ZM18.8477 12.2656H19.5312V10.2656H18.8477V12.2656ZM18.5312 11.2656V11.9492H20.5312V11.2656H18.5312ZM19.8477 13.3164V12.6328H17.8477V13.3164H19.8477ZM18.8477 11.6328H18.1641V13.6328H18.8477V11.6328ZM19.1641 12.6328V11.9492H17.1641V12.6328H19.1641ZM18.1641 10.9492H17.4805V12.9492H18.1641V10.9492ZM18.4805 11.9492V9.21484H16.4805V11.9492H18.4805ZM17.4805 10.2148H18.1641V8.21484H17.4805V10.2148ZM19.1641 9.21484V8.53125H17.1641V9.21484H19.1641ZM18.1641 9.53125H18.8477V7.53125H18.1641V9.53125ZM19.8477 8.53125V7.84766H17.8477V8.53125H19.8477ZM18.8477 8.84766H22.2656V6.84766H18.8477V8.84766ZM21.2656 7.84766V8.53125H23.2656V7.84766H21.2656ZM22.2656 9.53125H22.9492V7.53125H22.2656V9.53125ZM23.9492 8.53125V7.16406H21.9492V8.53125H23.9492ZM22.9492 6.16406H22.2656V8.16406H22.9492V6.16406ZM23.2656 7.16406V6.48047H21.2656V7.16406H23.2656ZM22.2656 5.48047H18.8477V7.48047H22.2656V5.48047ZM19.8477 6.48047V5.11328H17.8477V6.48047H19.8477ZM18.8477 6.11328H22.9492V4.11328H18.8477V6.11328ZM21.9492 5.11328V5.79688H23.9492V5.11328H21.9492ZM22.9492 6.79688H23.6328V4.79688H22.9492V6.79688ZM22.6328 5.79688V6.48047H24.6328V5.79688H22.6328ZM23.6328 7.48047H24.3164V5.48047H23.6328V7.48047ZM23.3164 6.48047V13.3164H25.3164V6.48047H23.3164ZM24.3164 12.3164H22.9492V14.3164H24.3164V12.3164ZM23.9492 13.3164V12.6328H21.9492V13.3164H23.9492ZM22.9492 11.6328H22.2656V13.6328H22.9492V11.6328ZM21.2656 12.6328V13.3164H23.2656V12.6328H21.2656ZM22.2656 12.3164H18.8477V14.3164H22.2656V12.3164ZM29.7852 4.42969H30.7852V3.42969H29.7852V4.42969ZM29.7852 5.79688V6.79688H30.7852V5.79688H29.7852ZM28.418 5.79688H27.418V6.79688H28.418V5.79688ZM28.418 4.42969V3.42969H27.418V4.42969H28.418ZM30.4688 11.9492H29.4688V12.9492H30.4688V11.9492ZM31.1523 11.9492H32.1523V10.9492H31.1523V11.9492ZM31.1523 13.3164V14.3164H32.1523V13.3164H31.1523ZM29.7852 13.3164H28.7852V14.3164H29.7852V13.3164ZM29.7852 12.6328H30.7852V11.6328H29.7852V12.6328ZM29.1016 12.6328H28.1016V13.6328H29.1016V12.6328ZM29.1016 11.9492H30.1016V10.9492H29.1016V11.9492ZM28.418 11.9492H27.418V12.9492H28.418V11.9492ZM28.418 8.53125H29.418V7.53125H28.418V8.53125ZM27.0508 8.53125H26.0508V9.53125H27.0508V8.53125ZM27.0508 7.16406V6.16406H26.0508V7.16406H27.0508ZM29.7852 7.16406H30.7852V6.16406H29.7852V7.16406ZM29.7852 11.2656H28.7852V12.2656H29.7852V11.2656ZM30.4688 11.2656H31.4688V10.2656H30.4688V11.2656ZM28.7852 4.42969V5.79688H30.7852V4.42969H28.7852ZM29.7852 4.79688H28.418V6.79688H29.7852V4.79688ZM29.418 5.79688V4.42969H27.418V5.79688H29.418ZM28.418 5.42969H29.7852V3.42969H28.418V5.42969ZM30.4688 12.9492H31.1523V10.9492H30.4688V12.9492ZM30.1523 11.9492V13.3164H32.1523V11.9492H30.1523ZM31.1523 12.3164H29.7852V14.3164H31.1523V12.3164ZM30.7852 13.3164V12.6328H28.7852V13.3164H30.7852ZM29.7852 11.6328H29.1016V13.6328H29.7852V11.6328ZM30.1016 12.6328V11.9492H28.1016V12.6328H30.1016ZM29.1016 10.9492H28.418V12.9492H29.1016V10.9492ZM29.418 11.9492V8.53125H27.418V11.9492H29.418ZM28.418 7.53125H27.0508V9.53125H28.418V7.53125ZM28.0508 8.53125V7.16406H26.0508V8.53125H28.0508ZM27.0508 8.16406H29.7852V6.16406H27.0508V8.16406ZM28.7852 7.16406V11.2656H30.7852V7.16406H28.7852ZM29.7852 12.2656H30.4688V10.2656H29.7852V12.2656ZM29.4688 11.2656V11.9492H31.4688V11.2656H29.4688ZM35.2539 9.21484V8.21484H34.2539V9.21484H35.2539ZM35.2539 13.3164V14.3164H36.2539V13.3164H35.2539ZM33.8867 13.3164H32.8867V14.3164H33.8867V13.3164ZM33.8867 5.79688V4.79688H32.8867V5.79688H33.8867ZM35.2539 5.79688H36.2539V4.79688H35.2539V5.79688ZM35.2539 7.16406H34.2539V8.16406H35.2539V7.16406ZM35.9375 7.16406V8.16406H36.9375V7.16406H35.9375ZM35.9375 6.48047V5.48047H34.9375V6.48047H35.9375ZM36.6211 6.48047V7.48047H37.6211V6.48047H36.6211ZM36.6211 5.79688V4.79688H35.6211V5.79688H36.6211ZM39.3555 5.79688H40.3555V4.79688H39.3555V5.79688ZM39.3555 6.48047H38.3555V7.48047H39.3555V6.48047ZM40.0391 6.48047H41.0391V5.48047H40.0391V6.48047ZM40.0391 7.16406H39.0391V8.16406H40.0391V7.16406ZM40.7227 7.16406H41.7227V6.16406H40.7227V7.16406ZM40.7227 8.53125V9.53125H41.7227V8.53125H40.7227ZM39.3555 8.53125H38.3555V9.53125H39.3555V8.53125ZM39.3555 7.84766H40.3555V6.84766H39.3555V7.84766ZM38.6719 7.84766H37.6719V8.84766H38.6719V7.84766ZM38.6719 7.16406H39.6719V6.16406H38.6719V7.16406ZM37.3047 7.16406V6.16406H36.3047V7.16406H37.3047ZM37.3047 7.84766V8.84766H38.3047V7.84766H37.3047ZM36.6211 7.84766V6.84766H35.6211V7.84766H36.6211ZM36.6211 8.53125V9.53125H37.6211V8.53125H36.6211ZM35.9375 8.53125V7.53125H34.9375V8.53125H35.9375ZM35.9375 9.21484V10.2148H36.9375V9.21484H35.9375ZM34.2539 9.21484V13.3164H36.2539V9.21484H34.2539ZM35.2539 12.3164H33.8867V14.3164H35.2539V12.3164ZM34.8867 13.3164V5.79688H32.8867V13.3164H34.8867ZM33.8867 6.79688H35.2539V4.79688H33.8867V6.79688ZM34.2539 5.79688V7.16406H36.2539V5.79688H34.2539ZM35.2539 8.16406H35.9375V6.16406H35.2539V8.16406ZM36.9375 7.16406V6.48047H34.9375V7.16406H36.9375ZM35.9375 7.48047H36.6211V5.48047H35.9375V7.48047ZM37.6211 6.48047V5.79688H35.6211V6.48047H37.6211ZM36.6211 6.79688H39.3555V4.79688H36.6211V6.79688ZM38.3555 5.79688V6.48047H40.3555V5.79688H38.3555ZM39.3555 7.48047H40.0391V5.48047H39.3555V7.48047ZM39.0391 6.48047V7.16406H41.0391V6.48047H39.0391ZM40.0391 8.16406H40.7227V6.16406H40.0391V8.16406ZM39.7227 7.16406V8.53125H41.7227V7.16406H39.7227ZM40.7227 7.53125H39.3555V9.53125H40.7227V7.53125ZM40.3555 8.53125V7.84766H38.3555V8.53125H40.3555ZM39.3555 6.84766H38.6719V8.84766H39.3555V6.84766ZM39.6719 7.84766V7.16406H37.6719V7.84766H39.6719ZM38.6719 6.16406H37.3047V8.16406H38.6719V6.16406ZM36.3047 7.16406V7.84766H38.3047V7.16406H36.3047ZM37.3047 6.84766H36.6211V8.84766H37.3047V6.84766ZM35.6211 7.84766V8.53125H37.6211V7.84766H35.6211ZM36.6211 7.53125H35.9375V9.53125H36.6211V7.53125ZM34.9375 8.53125V9.21484H36.9375V8.53125H34.9375ZM35.9375 8.21484H35.2539V10.2148H35.9375V8.21484Z" fill="#C11414" mask="url(#path-2-outside-1_133_25248)"/>
</svg>
