<svg width="34" height="12" viewBox="0 0 34 12" fill="none" xmlns="http://www.w3.org/2000/svg">
<mask id="path-1-outside-1_384_2116" maskUnits="userSpaceOnUse" x="0.426758" y="0.388672" width="34" height="12" fill="black">
<rect fill="white" x="0.426758" y="0.388672" width="34" height="12"/>
<path d="M7.5791 2.75586H8.2627V4.12305H6.89551V3.43945H6.21191V2.75586H3.47754V3.43945H2.79395V4.80664H3.47754V5.49023H6.89551V6.17383H7.5791V6.85742H8.2627V9.5918H7.5791V10.2754H6.89551V10.959H2.79395V10.2754H2.11035V9.5918H1.42676V8.22461H2.79395V8.9082H3.47754V9.5918H6.21191V8.9082H6.89551V7.54102H6.21191V6.85742H2.79395V6.17383H2.11035V5.49023H1.42676V2.75586H2.11035V2.07227H2.79395V1.38867H6.89551V2.07227H7.5791V2.75586Z"/>
<path d="M11.6807 9.5918H14.415V8.9082H15.0986V7.54102H14.415V6.85742H11.6807V7.54102H10.9971V8.9082H11.6807V9.5918ZM10.9971 10.959V10.2754H10.3135V9.5918H9.62988V6.85742H10.3135V6.17383H10.9971V5.49023H14.415V6.17383H15.0986V4.80664H14.415V4.12305H10.9971V2.75586H15.0986V3.43945H15.7822V4.12305H16.4658V10.959H15.0986V10.2754H14.415V10.959H10.9971Z"/>
<path d="M21.9346 2.07227V3.43945H20.5674V2.07227H21.9346ZM22.6182 9.5918H23.3018V10.959H21.9346V10.2754H21.251V9.5918H20.5674V6.17383H19.2002V4.80664H21.9346V8.9082H22.6182V9.5918Z"/>
<path d="M27.4033 6.85742V10.959H26.0361V3.43945H27.4033V4.80664H28.0869V4.12305H28.7705V3.43945H31.5049V4.12305H32.1885V4.80664H32.8721V6.17383H31.5049V5.49023H30.8213V4.80664H29.4541V5.49023H28.7705V6.17383H28.0869V6.85742H27.4033Z"/>
</mask>
<path d="M7.5791 2.75586H8.2627V4.12305H6.89551V3.43945H6.21191V2.75586H3.47754V3.43945H2.79395V4.80664H3.47754V5.49023H6.89551V6.17383H7.5791V6.85742H8.2627V9.5918H7.5791V10.2754H6.89551V10.959H2.79395V10.2754H2.11035V9.5918H1.42676V8.22461H2.79395V8.9082H3.47754V9.5918H6.21191V8.9082H6.89551V7.54102H6.21191V6.85742H2.79395V6.17383H2.11035V5.49023H1.42676V2.75586H2.11035V2.07227H2.79395V1.38867H6.89551V2.07227H7.5791V2.75586Z" fill="white"/>
<path d="M11.6807 9.5918H14.415V8.9082H15.0986V7.54102H14.415V6.85742H11.6807V7.54102H10.9971V8.9082H11.6807V9.5918ZM10.9971 10.959V10.2754H10.3135V9.5918H9.62988V6.85742H10.3135V6.17383H10.9971V5.49023H14.415V6.17383H15.0986V4.80664H14.415V4.12305H10.9971V2.75586H15.0986V3.43945H15.7822V4.12305H16.4658V10.959H15.0986V10.2754H14.415V10.959H10.9971Z" fill="white"/>
<path d="M21.9346 2.07227V3.43945H20.5674V2.07227H21.9346ZM22.6182 9.5918H23.3018V10.959H21.9346V10.2754H21.251V9.5918H20.5674V6.17383H19.2002V4.80664H21.9346V8.9082H22.6182V9.5918Z" fill="white"/>
<path d="M27.4033 6.85742V10.959H26.0361V3.43945H27.4033V4.80664H28.0869V4.12305H28.7705V3.43945H31.5049V4.12305H32.1885V4.80664H32.8721V6.17383H31.5049V5.49023H30.8213V4.80664H29.4541V5.49023H28.7705V6.17383H28.0869V6.85742H27.4033Z" fill="white"/>
<path d="M7.5791 2.75586H8.2627V4.12305H6.89551V3.43945H6.21191V2.75586H3.47754V3.43945H2.79395V4.80664H3.47754V5.49023H6.89551V6.17383H7.5791V6.85742H8.2627V9.5918H7.5791V10.2754H6.89551V10.959H2.79395V10.2754H2.11035V9.5918H1.42676V8.22461H2.79395V8.9082H3.47754V9.5918H6.21191V8.9082H6.89551V7.54102H6.21191V6.85742H2.79395V6.17383H2.11035V5.49023H1.42676V2.75586H2.11035V2.07227H2.79395V1.38867H6.89551V2.07227H7.5791V2.75586Z" stroke="#C11414" stroke-width="2" mask="url(#path-1-outside-1_384_2116)"/>
<path d="M11.6807 9.5918H14.415V8.9082H15.0986V7.54102H14.415V6.85742H11.6807V7.54102H10.9971V8.9082H11.6807V9.5918ZM10.9971 10.959V10.2754H10.3135V9.5918H9.62988V6.85742H10.3135V6.17383H10.9971V5.49023H14.415V6.17383H15.0986V4.80664H14.415V4.12305H10.9971V2.75586H15.0986V3.43945H15.7822V4.12305H16.4658V10.959H15.0986V10.2754H14.415V10.959H10.9971Z" stroke="#C11414" stroke-width="2" mask="url(#path-1-outside-1_384_2116)"/>
<path d="M21.9346 2.07227V3.43945H20.5674V2.07227H21.9346ZM22.6182 9.5918H23.3018V10.959H21.9346V10.2754H21.251V9.5918H20.5674V6.17383H19.2002V4.80664H21.9346V8.9082H22.6182V9.5918Z" stroke="#C11414" stroke-width="2" mask="url(#path-1-outside-1_384_2116)"/>
<path d="M27.4033 6.85742V10.959H26.0361V3.43945H27.4033V4.80664H28.0869V4.12305H28.7705V3.43945H31.5049V4.12305H32.1885V4.80664H32.8721V6.17383H31.5049V5.49023H30.8213V4.80664H29.4541V5.49023H28.7705V6.17383H28.0869V6.85742H27.4033Z" stroke="#C11414" stroke-width="2" mask="url(#path-1-outside-1_384_2116)"/>
</svg>
