<svg width="25" height="25" viewBox="0 0 25 25" fill="none" xmlns="http://www.w3.org/2000/svg">
<path d="M18.6095 18.9699C18.4586 19.1208 18.2927 19.1962 18.1117 19.1962C17.9307 19.1962 17.7647 19.1208 17.6139 18.9699L12.6585 14.0145L7.74834 18.9247C7.59749 19.0755 7.43155 19.151 7.25053 19.151C7.06952 19.151 6.90358 19.0755 6.75273 18.9247L6.43595 18.6079C6.2851 18.457 6.20967 18.2911 6.20967 18.1101C6.20967 17.9291 6.2851 17.7631 6.43595 17.6123L11.3461 12.7021L6.52646 7.8825C6.37561 7.73165 6.30018 7.56572 6.30018 7.3847C6.30018 7.20368 6.37561 7.03775 6.52646 6.8869L6.86587 6.54749C7.01672 6.39664 7.18265 6.32121 7.36367 6.32121C7.54469 6.32121 7.71063 6.39664 7.86148 6.54749L12.6811 11.3671L17.6139 6.43435C17.7647 6.2835 17.9307 6.20807 18.1117 6.20807C18.2927 6.20807 18.4586 6.2835 18.6095 6.43435L18.9263 6.75113C19.0771 6.90198 19.1526 7.06792 19.1526 7.24894C19.1526 7.42995 19.0771 7.59589 18.9263 7.74674L13.9935 12.6795L18.9489 17.6349C19.0998 17.7858 19.1752 17.9517 19.1752 18.1327C19.1752 18.3137 19.0998 18.4797 18.9489 18.6305L18.6095 18.9699Z" fill="white"/>
</svg>
