<svg width="39" height="38" viewBox="0 0 39 38" fill="none" xmlns="http://www.w3.org/2000/svg">
<path d="M18.6925 37.69C18.2258 37.69 17.8525 37.55 17.5725 37.27C17.2925 36.99 17.1525 36.6167 17.1525 36.15V20.82H1.96246C1.49579 20.82 1.12246 20.68 0.842461 20.4C0.562461 20.12 0.422461 19.7467 0.422461 19.28V18.3C0.422461 17.8333 0.562461 17.46 0.842461 17.18C1.12246 16.9 1.49579 16.76 1.96246 16.76H17.1525V1.85C17.1525 1.38333 17.2925 1.01 17.5725 0.729997C17.8525 0.449997 18.2258 0.309998 18.6925 0.309998H19.7425C20.2091 0.309998 20.5825 0.449997 20.8625 0.729997C21.1425 1.01 21.2825 1.38333 21.2825 1.85V16.76H36.5425C37.0091 16.76 37.3825 16.9 37.6625 17.18C37.9425 17.46 38.0825 17.8333 38.0825 18.3V19.28C38.0825 19.7467 37.9425 20.12 37.6625 20.4C37.3825 20.68 37.0091 20.82 36.5425 20.82H21.2825V36.15C21.2825 36.6167 21.1425 36.99 20.8625 37.27C20.5825 37.55 20.2091 37.69 19.7425 37.69H18.6925Z" fill="white"/>
</svg>
