<svg width="58" height="11" viewBox="0 0 58 11" fill="none" xmlns="http://www.w3.org/2000/svg">
<mask id="path-1-outside-1_443_656" maskUnits="userSpaceOnUse" x="-1" y="-1" width="60" height="13" fill="black">
<rect fill="white" x="-1" y="-1" width="60" height="13"/>
<path d="M2.33984 6.21484H6.44141V4.16406H5.75781V3.48047H5.07422V2.79688H3.70703V3.48047H3.02344V4.16406H2.33984V6.21484ZM2.33984 10.3164H0.972656V3.48047H1.65625V2.79688H2.33984V2.11328H3.02344V1.42969H3.70703V0.746094H5.07422V1.42969H5.75781V2.11328H6.44141V2.79688H7.125V3.48047H7.80859V10.3164H6.44141V7.58203H2.33984V10.3164ZM14.6445 4.16406H13.9609V3.48047H11.9102V4.16406H11.2266V6.21484H11.9102V6.89844H13.9609V6.21484H14.6445V4.16406ZM10.543 7.58203V10.3164H9.17578V2.11328H10.543V2.79688H11.2266V2.11328H14.6445V2.79688H15.3281V3.48047H16.0117V6.89844H15.3281V7.58203H14.6445V8.26562H11.2266V7.58203H10.543ZM21.4805 0.746094V10.3164H20.1133V0.746094H21.4805ZM29.6836 1.42969V2.79688H28.3164V1.42969H29.6836ZM30.3672 8.94922H31.0508V10.3164H29.6836V9.63281H29V8.94922H28.3164V5.53125H26.9492V4.16406H29.6836V8.26562H30.3672V8.94922ZM39.2539 8.26562V7.58203H40.6211V8.94922H39.9375V9.63281H39.2539V10.3164H35.1523V9.63281H34.4688V8.94922H33.7852V4.16406H34.4688V3.48047H35.1523V2.79688H39.2539V3.48047H39.9375V4.16406H40.6211V5.53125H39.2539V4.84766H38.5703V4.16406H35.8359V4.84766H35.1523V8.26562H35.8359V8.94922H38.5703V8.26562H39.2539ZM44.0391 8.94922H46.7734V8.26562H47.457V6.89844H46.7734V6.21484H44.0391V6.89844H43.3555V8.26562H44.0391V8.94922ZM43.3555 10.3164V9.63281H42.6719V8.94922H41.9883V6.21484H42.6719V5.53125H43.3555V4.84766H46.7734V5.53125H47.457V4.16406H46.7734V3.48047H43.3555V2.11328H47.457V2.79688H48.1406V3.48047H48.8242V10.3164H47.457V9.63281H46.7734V10.3164H43.3555ZM51.5586 6.21484V10.3164H50.1914V2.79688H51.5586V4.16406H52.2422V3.48047H52.9258V2.79688H55.6602V3.48047H56.3438V4.16406H57.0273V5.53125H55.6602V4.84766H54.9766V4.16406H53.6094V4.84766H52.9258V5.53125H52.2422V6.21484H51.5586Z"/>
</mask>
<path d="M2.33984 6.21484H6.44141V4.16406H5.75781V3.48047H5.07422V2.79688H3.70703V3.48047H3.02344V4.16406H2.33984V6.21484ZM2.33984 10.3164H0.972656V3.48047H1.65625V2.79688H2.33984V2.11328H3.02344V1.42969H3.70703V0.746094H5.07422V1.42969H5.75781V2.11328H6.44141V2.79688H7.125V3.48047H7.80859V10.3164H6.44141V7.58203H2.33984V10.3164ZM14.6445 4.16406H13.9609V3.48047H11.9102V4.16406H11.2266V6.21484H11.9102V6.89844H13.9609V6.21484H14.6445V4.16406ZM10.543 7.58203V10.3164H9.17578V2.11328H10.543V2.79688H11.2266V2.11328H14.6445V2.79688H15.3281V3.48047H16.0117V6.89844H15.3281V7.58203H14.6445V8.26562H11.2266V7.58203H10.543ZM21.4805 0.746094V10.3164H20.1133V0.746094H21.4805ZM29.6836 1.42969V2.79688H28.3164V1.42969H29.6836ZM30.3672 8.94922H31.0508V10.3164H29.6836V9.63281H29V8.94922H28.3164V5.53125H26.9492V4.16406H29.6836V8.26562H30.3672V8.94922ZM39.2539 8.26562V7.58203H40.6211V8.94922H39.9375V9.63281H39.2539V10.3164H35.1523V9.63281H34.4688V8.94922H33.7852V4.16406H34.4688V3.48047H35.1523V2.79688H39.2539V3.48047H39.9375V4.16406H40.6211V5.53125H39.2539V4.84766H38.5703V4.16406H35.8359V4.84766H35.1523V8.26562H35.8359V8.94922H38.5703V8.26562H39.2539ZM44.0391 8.94922H46.7734V8.26562H47.457V6.89844H46.7734V6.21484H44.0391V6.89844H43.3555V8.26562H44.0391V8.94922ZM43.3555 10.3164V9.63281H42.6719V8.94922H41.9883V6.21484H42.6719V5.53125H43.3555V4.84766H46.7734V5.53125H47.457V4.16406H46.7734V3.48047H43.3555V2.11328H47.457V2.79688H48.1406V3.48047H48.8242V10.3164H47.457V9.63281H46.7734V10.3164H43.3555ZM51.5586 6.21484V10.3164H50.1914V2.79688H51.5586V4.16406H52.2422V3.48047H52.9258V2.79688H55.6602V3.48047H56.3438V4.16406H57.0273V5.53125H55.6602V4.84766H54.9766V4.16406H53.6094V4.84766H52.9258V5.53125H52.2422V6.21484H51.5586Z" fill="white"/>
<path d="M2.33984 6.21484H1.33984V7.21484H2.33984V6.21484ZM6.44141 6.21484V7.21484H7.44141V6.21484H6.44141ZM6.44141 4.16406H7.44141V3.16406H6.44141V4.16406ZM5.75781 4.16406H4.75781V5.16406H5.75781V4.16406ZM5.75781 3.48047H6.75781V2.48047H5.75781V3.48047ZM5.07422 3.48047H4.07422V4.48047H5.07422V3.48047ZM5.07422 2.79688H6.07422V1.79688H5.07422V2.79688ZM3.70703 2.79688V1.79688H2.70703V2.79688H3.70703ZM3.70703 3.48047V4.48047H4.70703V3.48047H3.70703ZM3.02344 3.48047V2.48047H2.02344V3.48047H3.02344ZM3.02344 4.16406V5.16406H4.02344V4.16406H3.02344ZM2.33984 4.16406V3.16406H1.33984V4.16406H2.33984ZM2.33984 10.3164V11.3164H3.33984V10.3164H2.33984ZM0.972656 10.3164H-0.0273438V11.3164H0.972656V10.3164ZM0.972656 3.48047V2.48047H-0.0273438V3.48047H0.972656ZM1.65625 3.48047V4.48047H2.65625V3.48047H1.65625ZM1.65625 2.79688V1.79688H0.65625V2.79688H1.65625ZM2.33984 2.79688V3.79688H3.33984V2.79688H2.33984ZM2.33984 2.11328V1.11328H1.33984V2.11328H2.33984ZM3.02344 2.11328V3.11328H4.02344V2.11328H3.02344ZM3.02344 1.42969V0.429688H2.02344V1.42969H3.02344ZM3.70703 1.42969V2.42969H4.70703V1.42969H3.70703ZM3.70703 0.746094V-0.253906H2.70703V0.746094H3.70703ZM5.07422 0.746094H6.07422V-0.253906H5.07422V0.746094ZM5.07422 1.42969H4.07422V2.42969H5.07422V1.42969ZM5.75781 1.42969H6.75781V0.429688H5.75781V1.42969ZM5.75781 2.11328H4.75781V3.11328H5.75781V2.11328ZM6.44141 2.11328H7.44141V1.11328H6.44141V2.11328ZM6.44141 2.79688H5.44141V3.79688H6.44141V2.79688ZM7.125 2.79688H8.125V1.79688H7.125V2.79688ZM7.125 3.48047H6.125V4.48047H7.125V3.48047ZM7.80859 3.48047H8.80859V2.48047H7.80859V3.48047ZM7.80859 10.3164V11.3164H8.80859V10.3164H7.80859ZM6.44141 10.3164H5.44141V11.3164H6.44141V10.3164ZM6.44141 7.58203H7.44141V6.58203H6.44141V7.58203ZM2.33984 7.58203V6.58203H1.33984V7.58203H2.33984ZM2.33984 7.21484H6.44141V5.21484H2.33984V7.21484ZM7.44141 6.21484V4.16406H5.44141V6.21484H7.44141ZM6.44141 3.16406H5.75781V5.16406H6.44141V3.16406ZM6.75781 4.16406V3.48047H4.75781V4.16406H6.75781ZM5.75781 2.48047H5.07422V4.48047H5.75781V2.48047ZM6.07422 3.48047V2.79688H4.07422V3.48047H6.07422ZM5.07422 1.79688H3.70703V3.79688H5.07422V1.79688ZM2.70703 2.79688V3.48047H4.70703V2.79688H2.70703ZM3.70703 2.48047H3.02344V4.48047H3.70703V2.48047ZM2.02344 3.48047V4.16406H4.02344V3.48047H2.02344ZM3.02344 3.16406H2.33984V5.16406H3.02344V3.16406ZM1.33984 4.16406V6.21484H3.33984V4.16406H1.33984ZM2.33984 9.31641H0.972656V11.3164H2.33984V9.31641ZM1.97266 10.3164V3.48047H-0.0273438V10.3164H1.97266ZM0.972656 4.48047H1.65625V2.48047H0.972656V4.48047ZM2.65625 3.48047V2.79688H0.65625V3.48047H2.65625ZM1.65625 3.79688H2.33984V1.79688H1.65625V3.79688ZM3.33984 2.79688V2.11328H1.33984V2.79688H3.33984ZM2.33984 3.11328H3.02344V1.11328H2.33984V3.11328ZM4.02344 2.11328V1.42969H2.02344V2.11328H4.02344ZM3.02344 2.42969H3.70703V0.429688H3.02344V2.42969ZM4.70703 1.42969V0.746094H2.70703V1.42969H4.70703ZM3.70703 1.74609H5.07422V-0.253906H3.70703V1.74609ZM4.07422 0.746094V1.42969H6.07422V0.746094H4.07422ZM5.07422 2.42969H5.75781V0.429688H5.07422V2.42969ZM4.75781 1.42969V2.11328H6.75781V1.42969H4.75781ZM5.75781 3.11328H6.44141V1.11328H5.75781V3.11328ZM5.44141 2.11328V2.79688H7.44141V2.11328H5.44141ZM6.44141 3.79688H7.125V1.79688H6.44141V3.79688ZM6.125 2.79688V3.48047H8.125V2.79688H6.125ZM7.125 4.48047H7.80859V2.48047H7.125V4.48047ZM6.80859 3.48047V10.3164H8.80859V3.48047H6.80859ZM7.80859 9.31641H6.44141V11.3164H7.80859V9.31641ZM7.44141 10.3164V7.58203H5.44141V10.3164H7.44141ZM6.44141 6.58203H2.33984V8.58203H6.44141V6.58203ZM1.33984 7.58203V10.3164H3.33984V7.58203H1.33984ZM14.6445 4.16406H15.6445V3.16406H14.6445V4.16406ZM13.9609 4.16406H12.9609V5.16406H13.9609V4.16406ZM13.9609 3.48047H14.9609V2.48047H13.9609V3.48047ZM11.9102 3.48047V2.48047H10.9102V3.48047H11.9102ZM11.9102 4.16406V5.16406H12.9102V4.16406H11.9102ZM11.2266 4.16406V3.16406H10.2266V4.16406H11.2266ZM11.2266 6.21484H10.2266V7.21484H11.2266V6.21484ZM11.9102 6.21484H12.9102V5.21484H11.9102V6.21484ZM11.9102 6.89844H10.9102V7.89844H11.9102V6.89844ZM13.9609 6.89844V7.89844H14.9609V6.89844H13.9609ZM13.9609 6.21484V5.21484H12.9609V6.21484H13.9609ZM14.6445 6.21484V7.21484H15.6445V6.21484H14.6445ZM10.543 7.58203V6.58203H9.54297V7.58203H10.543ZM10.543 10.3164V11.3164H11.543V10.3164H10.543ZM9.17578 10.3164H8.17578V11.3164H9.17578V10.3164ZM9.17578 2.11328V1.11328H8.17578V2.11328H9.17578ZM10.543 2.11328H11.543V1.11328H10.543V2.11328ZM10.543 2.79688H9.54297V3.79688H10.543V2.79688ZM11.2266 2.79688V3.79688H12.2266V2.79688H11.2266ZM11.2266 2.11328V1.11328H10.2266V2.11328H11.2266ZM14.6445 2.11328H15.6445V1.11328H14.6445V2.11328ZM14.6445 2.79688H13.6445V3.79688H14.6445V2.79688ZM15.3281 2.79688H16.3281V1.79688H15.3281V2.79688ZM15.3281 3.48047H14.3281V4.48047H15.3281V3.48047ZM16.0117 3.48047H17.0117V2.48047H16.0117V3.48047ZM16.0117 6.89844V7.89844H17.0117V6.89844H16.0117ZM15.3281 6.89844V5.89844H14.3281V6.89844H15.3281ZM15.3281 7.58203V8.58203H16.3281V7.58203H15.3281ZM14.6445 7.58203V6.58203H13.6445V7.58203H14.6445ZM14.6445 8.26562V9.26562H15.6445V8.26562H14.6445ZM11.2266 8.26562H10.2266V9.26562H11.2266V8.26562ZM11.2266 7.58203H12.2266V6.58203H11.2266V7.58203ZM14.6445 3.16406H13.9609V5.16406H14.6445V3.16406ZM14.9609 4.16406V3.48047H12.9609V4.16406H14.9609ZM13.9609 2.48047H11.9102V4.48047H13.9609V2.48047ZM10.9102 3.48047V4.16406H12.9102V3.48047H10.9102ZM11.9102 3.16406H11.2266V5.16406H11.9102V3.16406ZM10.2266 4.16406V6.21484H12.2266V4.16406H10.2266ZM11.2266 7.21484H11.9102V5.21484H11.2266V7.21484ZM10.9102 6.21484V6.89844H12.9102V6.21484H10.9102ZM11.9102 7.89844H13.9609V5.89844H11.9102V7.89844ZM14.9609 6.89844V6.21484H12.9609V6.89844H14.9609ZM13.9609 7.21484H14.6445V5.21484H13.9609V7.21484ZM15.6445 6.21484V4.16406H13.6445V6.21484H15.6445ZM9.54297 7.58203V10.3164H11.543V7.58203H9.54297ZM10.543 9.31641H9.17578V11.3164H10.543V9.31641ZM10.1758 10.3164V2.11328H8.17578V10.3164H10.1758ZM9.17578 3.11328H10.543V1.11328H9.17578V3.11328ZM9.54297 2.11328V2.79688H11.543V2.11328H9.54297ZM10.543 3.79688H11.2266V1.79688H10.543V3.79688ZM12.2266 2.79688V2.11328H10.2266V2.79688H12.2266ZM11.2266 3.11328H14.6445V1.11328H11.2266V3.11328ZM13.6445 2.11328V2.79688H15.6445V2.11328H13.6445ZM14.6445 3.79688H15.3281V1.79688H14.6445V3.79688ZM14.3281 2.79688V3.48047H16.3281V2.79688H14.3281ZM15.3281 4.48047H16.0117V2.48047H15.3281V4.48047ZM15.0117 3.48047V6.89844H17.0117V3.48047H15.0117ZM16.0117 5.89844H15.3281V7.89844H16.0117V5.89844ZM14.3281 6.89844V7.58203H16.3281V6.89844H14.3281ZM15.3281 6.58203H14.6445V8.58203H15.3281V6.58203ZM13.6445 7.58203V8.26562H15.6445V7.58203H13.6445ZM14.6445 7.26562H11.2266V9.26562H14.6445V7.26562ZM12.2266 8.26562V7.58203H10.2266V8.26562H12.2266ZM11.2266 6.58203H10.543V8.58203H11.2266V6.58203ZM21.4805 0.746094H22.4805V-0.253906H21.4805V0.746094ZM21.4805 10.3164V11.3164H22.4805V10.3164H21.4805ZM20.1133 10.3164H19.1133V11.3164H20.1133V10.3164ZM20.1133 0.746094V-0.253906H19.1133V0.746094H20.1133ZM20.4805 0.746094V10.3164H22.4805V0.746094H20.4805ZM21.4805 9.31641H20.1133V11.3164H21.4805V9.31641ZM21.1133 10.3164V0.746094H19.1133V10.3164H21.1133ZM20.1133 1.74609H21.4805V-0.253906H20.1133V1.74609ZM29.6836 1.42969H30.6836V0.429688H29.6836V1.42969ZM29.6836 2.79688V3.79688H30.6836V2.79688H29.6836ZM28.3164 2.79688H27.3164V3.79688H28.3164V2.79688ZM28.3164 1.42969V0.429688H27.3164V1.42969H28.3164ZM30.3672 8.94922H29.3672V9.94922H30.3672V8.94922ZM31.0508 8.94922H32.0508V7.94922H31.0508V8.94922ZM31.0508 10.3164V11.3164H32.0508V10.3164H31.0508ZM29.6836 10.3164H28.6836V11.3164H29.6836V10.3164ZM29.6836 9.63281H30.6836V8.63281H29.6836V9.63281ZM29 9.63281H28V10.6328H29V9.63281ZM29 8.94922H30V7.94922H29V8.94922ZM28.3164 8.94922H27.3164V9.94922H28.3164V8.94922ZM28.3164 5.53125H29.3164V4.53125H28.3164V5.53125ZM26.9492 5.53125H25.9492V6.53125H26.9492V5.53125ZM26.9492 4.16406V3.16406H25.9492V4.16406H26.9492ZM29.6836 4.16406H30.6836V3.16406H29.6836V4.16406ZM29.6836 8.26562H28.6836V9.26562H29.6836V8.26562ZM30.3672 8.26562H31.3672V7.26562H30.3672V8.26562ZM28.6836 1.42969V2.79688H30.6836V1.42969H28.6836ZM29.6836 1.79688H28.3164V3.79688H29.6836V1.79688ZM29.3164 2.79688V1.42969H27.3164V2.79688H29.3164ZM28.3164 2.42969H29.6836V0.429688H28.3164V2.42969ZM30.3672 9.94922H31.0508V7.94922H30.3672V9.94922ZM30.0508 8.94922V10.3164H32.0508V8.94922H30.0508ZM31.0508 9.31641H29.6836V11.3164H31.0508V9.31641ZM30.6836 10.3164V9.63281H28.6836V10.3164H30.6836ZM29.6836 8.63281H29V10.6328H29.6836V8.63281ZM30 9.63281V8.94922H28V9.63281H30ZM29 7.94922H28.3164V9.94922H29V7.94922ZM29.3164 8.94922V5.53125H27.3164V8.94922H29.3164ZM28.3164 4.53125H26.9492V6.53125H28.3164V4.53125ZM27.9492 5.53125V4.16406H25.9492V5.53125H27.9492ZM26.9492 5.16406H29.6836V3.16406H26.9492V5.16406ZM28.6836 4.16406V8.26562H30.6836V4.16406H28.6836ZM29.6836 9.26562H30.3672V7.26562H29.6836V9.26562ZM29.3672 8.26562V8.94922H31.3672V8.26562H29.3672ZM39.2539 8.26562V9.26562H40.2539V8.26562H39.2539ZM39.2539 7.58203V6.58203H38.2539V7.58203H39.2539ZM40.6211 7.58203H41.6211V6.58203H40.6211V7.58203ZM40.6211 8.94922V9.94922H41.6211V8.94922H40.6211ZM39.9375 8.94922V7.94922H38.9375V8.94922H39.9375ZM39.9375 9.63281V10.6328H40.9375V9.63281H39.9375ZM39.2539 9.63281V8.63281H38.2539V9.63281H39.2539ZM39.2539 10.3164V11.3164H40.2539V10.3164H39.2539ZM35.1523 10.3164H34.1523V11.3164H35.1523V10.3164ZM35.1523 9.63281H36.1523V8.63281H35.1523V9.63281ZM34.4688 9.63281H33.4688V10.6328H34.4688V9.63281ZM34.4688 8.94922H35.4688V7.94922H34.4688V8.94922ZM33.7852 8.94922H32.7852V9.94922H33.7852V8.94922ZM33.7852 4.16406V3.16406H32.7852V4.16406H33.7852ZM34.4688 4.16406V5.16406H35.4688V4.16406H34.4688ZM34.4688 3.48047V2.48047H33.4688V3.48047H34.4688ZM35.1523 3.48047V4.48047H36.1523V3.48047H35.1523ZM35.1523 2.79688V1.79688H34.1523V2.79688H35.1523ZM39.2539 2.79688H40.2539V1.79688H39.2539V2.79688ZM39.2539 3.48047H38.2539V4.48047H39.2539V3.48047ZM39.9375 3.48047H40.9375V2.48047H39.9375V3.48047ZM39.9375 4.16406H38.9375V5.16406H39.9375V4.16406ZM40.6211 4.16406H41.6211V3.16406H40.6211V4.16406ZM40.6211 5.53125V6.53125H41.6211V5.53125H40.6211ZM39.2539 5.53125H38.2539V6.53125H39.2539V5.53125ZM39.2539 4.84766H40.2539V3.84766H39.2539V4.84766ZM38.5703 4.84766H37.5703V5.84766H38.5703V4.84766ZM38.5703 4.16406H39.5703V3.16406H38.5703V4.16406ZM35.8359 4.16406V3.16406H34.8359V4.16406H35.8359ZM35.8359 4.84766V5.84766H36.8359V4.84766H35.8359ZM35.1523 4.84766V3.84766H34.1523V4.84766H35.1523ZM35.1523 8.26562H34.1523V9.26562H35.1523V8.26562ZM35.8359 8.26562H36.8359V7.26562H35.8359V8.26562ZM35.8359 8.94922H34.8359V9.94922H35.8359V8.94922ZM38.5703 8.94922V9.94922H39.5703V8.94922H38.5703ZM38.5703 8.26562V7.26562H37.5703V8.26562H38.5703ZM40.2539 8.26562V7.58203H38.2539V8.26562H40.2539ZM39.2539 8.58203H40.6211V6.58203H39.2539V8.58203ZM39.6211 7.58203V8.94922H41.6211V7.58203H39.6211ZM40.6211 7.94922H39.9375V9.94922H40.6211V7.94922ZM38.9375 8.94922V9.63281H40.9375V8.94922H38.9375ZM39.9375 8.63281H39.2539V10.6328H39.9375V8.63281ZM38.2539 9.63281V10.3164H40.2539V9.63281H38.2539ZM39.2539 9.31641H35.1523V11.3164H39.2539V9.31641ZM36.1523 10.3164V9.63281H34.1523V10.3164H36.1523ZM35.1523 8.63281H34.4688V10.6328H35.1523V8.63281ZM35.4688 9.63281V8.94922H33.4688V9.63281H35.4688ZM34.4688 7.94922H33.7852V9.94922H34.4688V7.94922ZM34.7852 8.94922V4.16406H32.7852V8.94922H34.7852ZM33.7852 5.16406H34.4688V3.16406H33.7852V5.16406ZM35.4688 4.16406V3.48047H33.4688V4.16406H35.4688ZM34.4688 4.48047H35.1523V2.48047H34.4688V4.48047ZM36.1523 3.48047V2.79688H34.1523V3.48047H36.1523ZM35.1523 3.79688H39.2539V1.79688H35.1523V3.79688ZM38.2539 2.79688V3.48047H40.2539V2.79688H38.2539ZM39.2539 4.48047H39.9375V2.48047H39.2539V4.48047ZM38.9375 3.48047V4.16406H40.9375V3.48047H38.9375ZM39.9375 5.16406H40.6211V3.16406H39.9375V5.16406ZM39.6211 4.16406V5.53125H41.6211V4.16406H39.6211ZM40.6211 4.53125H39.2539V6.53125H40.6211V4.53125ZM40.2539 5.53125V4.84766H38.2539V5.53125H40.2539ZM39.2539 3.84766H38.5703V5.84766H39.2539V3.84766ZM39.5703 4.84766V4.16406H37.5703V4.84766H39.5703ZM38.5703 3.16406H35.8359V5.16406H38.5703V3.16406ZM34.8359 4.16406V4.84766H36.8359V4.16406H34.8359ZM35.8359 3.84766H35.1523V5.84766H35.8359V3.84766ZM34.1523 4.84766V8.26562H36.1523V4.84766H34.1523ZM35.1523 9.26562H35.8359V7.26562H35.1523V9.26562ZM34.8359 8.26562V8.94922H36.8359V8.26562H34.8359ZM35.8359 9.94922H38.5703V7.94922H35.8359V9.94922ZM39.5703 8.94922V8.26562H37.5703V8.94922H39.5703ZM38.5703 9.26562H39.2539V7.26562H38.5703V9.26562ZM44.0391 8.94922H43.0391V9.94922H44.0391V8.94922ZM46.7734 8.94922V9.94922H47.7734V8.94922H46.7734ZM46.7734 8.26562V7.26562H45.7734V8.26562H46.7734ZM47.457 8.26562V9.26562H48.457V8.26562H47.457ZM47.457 6.89844H48.457V5.89844H47.457V6.89844ZM46.7734 6.89844H45.7734V7.89844H46.7734V6.89844ZM46.7734 6.21484H47.7734V5.21484H46.7734V6.21484ZM44.0391 6.21484V5.21484H43.0391V6.21484H44.0391ZM44.0391 6.89844V7.89844H45.0391V6.89844H44.0391ZM43.3555 6.89844V5.89844H42.3555V6.89844H43.3555ZM43.3555 8.26562H42.3555V9.26562H43.3555V8.26562ZM44.0391 8.26562H45.0391V7.26562H44.0391V8.26562ZM43.3555 10.3164H42.3555V11.3164H43.3555V10.3164ZM43.3555 9.63281H44.3555V8.63281H43.3555V9.63281ZM42.6719 9.63281H41.6719V10.6328H42.6719V9.63281ZM42.6719 8.94922H43.6719V7.94922H42.6719V8.94922ZM41.9883 8.94922H40.9883V9.94922H41.9883V8.94922ZM41.9883 6.21484V5.21484H40.9883V6.21484H41.9883ZM42.6719 6.21484V7.21484H43.6719V6.21484H42.6719ZM42.6719 5.53125V4.53125H41.6719V5.53125H42.6719ZM43.3555 5.53125V6.53125H44.3555V5.53125H43.3555ZM43.3555 4.84766V3.84766H42.3555V4.84766H43.3555ZM46.7734 4.84766H47.7734V3.84766H46.7734V4.84766ZM46.7734 5.53125H45.7734V6.53125H46.7734V5.53125ZM47.457 5.53125V6.53125H48.457V5.53125H47.457ZM47.457 4.16406H48.457V3.16406H47.457V4.16406ZM46.7734 4.16406H45.7734V5.16406H46.7734V4.16406ZM46.7734 3.48047H47.7734V2.48047H46.7734V3.48047ZM43.3555 3.48047H42.3555V4.48047H43.3555V3.48047ZM43.3555 2.11328V1.11328H42.3555V2.11328H43.3555ZM47.457 2.11328H48.457V1.11328H47.457V2.11328ZM47.457 2.79688H46.457V3.79688H47.457V2.79688ZM48.1406 2.79688H49.1406V1.79688H48.1406V2.79688ZM48.1406 3.48047H47.1406V4.48047H48.1406V3.48047ZM48.8242 3.48047H49.8242V2.48047H48.8242V3.48047ZM48.8242 10.3164V11.3164H49.8242V10.3164H48.8242ZM47.457 10.3164H46.457V11.3164H47.457V10.3164ZM47.457 9.63281H48.457V8.63281H47.457V9.63281ZM46.7734 9.63281V8.63281H45.7734V9.63281H46.7734ZM46.7734 10.3164V11.3164H47.7734V10.3164H46.7734ZM44.0391 9.94922H46.7734V7.94922H44.0391V9.94922ZM47.7734 8.94922V8.26562H45.7734V8.94922H47.7734ZM46.7734 9.26562H47.457V7.26562H46.7734V9.26562ZM48.457 8.26562V6.89844H46.457V8.26562H48.457ZM47.457 5.89844H46.7734V7.89844H47.457V5.89844ZM47.7734 6.89844V6.21484H45.7734V6.89844H47.7734ZM46.7734 5.21484H44.0391V7.21484H46.7734V5.21484ZM43.0391 6.21484V6.89844H45.0391V6.21484H43.0391ZM44.0391 5.89844H43.3555V7.89844H44.0391V5.89844ZM42.3555 6.89844V8.26562H44.3555V6.89844H42.3555ZM43.3555 9.26562H44.0391V7.26562H43.3555V9.26562ZM43.0391 8.26562V8.94922H45.0391V8.26562H43.0391ZM44.3555 10.3164V9.63281H42.3555V10.3164H44.3555ZM43.3555 8.63281H42.6719V10.6328H43.3555V8.63281ZM43.6719 9.63281V8.94922H41.6719V9.63281H43.6719ZM42.6719 7.94922H41.9883V9.94922H42.6719V7.94922ZM42.9883 8.94922V6.21484H40.9883V8.94922H42.9883ZM41.9883 7.21484H42.6719V5.21484H41.9883V7.21484ZM43.6719 6.21484V5.53125H41.6719V6.21484H43.6719ZM42.6719 6.53125H43.3555V4.53125H42.6719V6.53125ZM44.3555 5.53125V4.84766H42.3555V5.53125H44.3555ZM43.3555 5.84766H46.7734V3.84766H43.3555V5.84766ZM45.7734 4.84766V5.53125H47.7734V4.84766H45.7734ZM46.7734 6.53125H47.457V4.53125H46.7734V6.53125ZM48.457 5.53125V4.16406H46.457V5.53125H48.457ZM47.457 3.16406H46.7734V5.16406H47.457V3.16406ZM47.7734 4.16406V3.48047H45.7734V4.16406H47.7734ZM46.7734 2.48047H43.3555V4.48047H46.7734V2.48047ZM44.3555 3.48047V2.11328H42.3555V3.48047H44.3555ZM43.3555 3.11328H47.457V1.11328H43.3555V3.11328ZM46.457 2.11328V2.79688H48.457V2.11328H46.457ZM47.457 3.79688H48.1406V1.79688H47.457V3.79688ZM47.1406 2.79688V3.48047H49.1406V2.79688H47.1406ZM48.1406 4.48047H48.8242V2.48047H48.1406V4.48047ZM47.8242 3.48047V10.3164H49.8242V3.48047H47.8242ZM48.8242 9.31641H47.457V11.3164H48.8242V9.31641ZM48.457 10.3164V9.63281H46.457V10.3164H48.457ZM47.457 8.63281H46.7734V10.6328H47.457V8.63281ZM45.7734 9.63281V10.3164H47.7734V9.63281H45.7734ZM46.7734 9.31641H43.3555V11.3164H46.7734V9.31641ZM51.5586 6.21484V5.21484H50.5586V6.21484H51.5586ZM51.5586 10.3164V11.3164H52.5586V10.3164H51.5586ZM50.1914 10.3164H49.1914V11.3164H50.1914V10.3164ZM50.1914 2.79688V1.79688H49.1914V2.79688H50.1914ZM51.5586 2.79688H52.5586V1.79688H51.5586V2.79688ZM51.5586 4.16406H50.5586V5.16406H51.5586V4.16406ZM52.2422 4.16406V5.16406H53.2422V4.16406H52.2422ZM52.2422 3.48047V2.48047H51.2422V3.48047H52.2422ZM52.9258 3.48047V4.48047H53.9258V3.48047H52.9258ZM52.9258 2.79688V1.79688H51.9258V2.79688H52.9258ZM55.6602 2.79688H56.6602V1.79688H55.6602V2.79688ZM55.6602 3.48047H54.6602V4.48047H55.6602V3.48047ZM56.3438 3.48047H57.3438V2.48047H56.3438V3.48047ZM56.3438 4.16406H55.3438V5.16406H56.3438V4.16406ZM57.0273 4.16406H58.0273V3.16406H57.0273V4.16406ZM57.0273 5.53125V6.53125H58.0273V5.53125H57.0273ZM55.6602 5.53125H54.6602V6.53125H55.6602V5.53125ZM55.6602 4.84766H56.6602V3.84766H55.6602V4.84766ZM54.9766 4.84766H53.9766V5.84766H54.9766V4.84766ZM54.9766 4.16406H55.9766V3.16406H54.9766V4.16406ZM53.6094 4.16406V3.16406H52.6094V4.16406H53.6094ZM53.6094 4.84766V5.84766H54.6094V4.84766H53.6094ZM52.9258 4.84766V3.84766H51.9258V4.84766H52.9258ZM52.9258 5.53125V6.53125H53.9258V5.53125H52.9258ZM52.2422 5.53125V4.53125H51.2422V5.53125H52.2422ZM52.2422 6.21484V7.21484H53.2422V6.21484H52.2422ZM50.5586 6.21484V10.3164H52.5586V6.21484H50.5586ZM51.5586 9.31641H50.1914V11.3164H51.5586V9.31641ZM51.1914 10.3164V2.79688H49.1914V10.3164H51.1914ZM50.1914 3.79688H51.5586V1.79688H50.1914V3.79688ZM50.5586 2.79688V4.16406H52.5586V2.79688H50.5586ZM51.5586 5.16406H52.2422V3.16406H51.5586V5.16406ZM53.2422 4.16406V3.48047H51.2422V4.16406H53.2422ZM52.2422 4.48047H52.9258V2.48047H52.2422V4.48047ZM53.9258 3.48047V2.79688H51.9258V3.48047H53.9258ZM52.9258 3.79688H55.6602V1.79688H52.9258V3.79688ZM54.6602 2.79688V3.48047H56.6602V2.79688H54.6602ZM55.6602 4.48047H56.3438V2.48047H55.6602V4.48047ZM55.3438 3.48047V4.16406H57.3438V3.48047H55.3438ZM56.3438 5.16406H57.0273V3.16406H56.3438V5.16406ZM56.0273 4.16406V5.53125H58.0273V4.16406H56.0273ZM57.0273 4.53125H55.6602V6.53125H57.0273V4.53125ZM56.6602 5.53125V4.84766H54.6602V5.53125H56.6602ZM55.6602 3.84766H54.9766V5.84766H55.6602V3.84766ZM55.9766 4.84766V4.16406H53.9766V4.84766H55.9766ZM54.9766 3.16406H53.6094V5.16406H54.9766V3.16406ZM52.6094 4.16406V4.84766H54.6094V4.16406H52.6094ZM53.6094 3.84766H52.9258V5.84766H53.6094V3.84766ZM51.9258 4.84766V5.53125H53.9258V4.84766H51.9258ZM52.9258 4.53125H52.2422V6.53125H52.9258V4.53125ZM51.2422 5.53125V6.21484H53.2422V5.53125H51.2422ZM52.2422 5.21484H51.5586V7.21484H52.2422V5.21484Z" fill="#1B68AE" mask="url(#path-1-outside-1_443_656)"/>
</svg>
