<svg width="17" height="18" viewBox="0 0 17 18" fill="none" xmlns="http://www.w3.org/2000/svg">
<path d="M8.4 0C3.768 0 0 3.454 0 7.7C0 10.318 1.428 12.617 3.6 14.014V16.5C3.6 17.105 4.14 17.6 4.8 17.6H12C12.66 17.6 13.2 17.105 13.2 16.5V14.014C15.372 12.617 16.8 10.318 16.8 7.7C16.8 3.454 13.032 0 8.4 0ZM11.82 12.21L10.8 12.87V15.4H6V12.87L4.98 12.21C3.36 11.176 2.4 9.493 2.4 7.7C2.4 4.664 5.088 2.2 8.4 2.2C11.712 2.2 14.4 4.664 14.4 7.7C14.4 9.493 13.44 11.176 11.82 12.21Z" fill="#8DC0EC"/>
<path d="M11.82 12.21L10.8 12.87V15.4H6V12.87L4.98 12.21C3.36 11.176 2.4 9.493 2.4 7.7C2.4 4.664 5.088 2.2 8.4 2.2C11.712 2.2 14.4 4.664 14.4 7.7C14.4 9.493 13.44 11.176 11.82 12.21Z" fill="white"/>
</svg>
