<svg width="74" height="20" viewBox="0 0 74 20" fill="none" xmlns="http://www.w3.org/2000/svg">
<path d="M4 20H70V18H4V20Z" fill="#1A1B23"/>
<path d="M2 4V16H0V4H2Z" fill="#1A1B23"/>
<path d="M4 16V18H2V16H4Z" fill="#1A1B23"/>
<path d="M4 2V4H2V2H4Z" fill="#1A1B23"/>
<path d="M70 0H4V2H70V0Z" fill="#2A85CD"/>
<path d="M4 2V4H70V2H4Z" fill="#2A85CD"/>
<path d="M4 4V16H70V4H4Z" fill="#2A85CD"/>
<path d="M4 16V4H2V16H4Z" fill="#2A85CD"/>
<path d="M4 18H6V17H68V18H70V16H4V18Z" fill="#2A85CD"/>
<path d="M72 2H70V4H72V2Z" fill="#2A85CD"/>
<path d="M70 16H72V4H70V16Z" fill="#2A85CD"/>
<path d="M72 16H74V4H72V16Z" fill="#2A85CD"/>
<path d="M70 18H72V16H70V18Z" fill="#2A85CD"/>
</svg>
