<svg width="12" height="12" viewBox="0 0 12 12" fill="none" xmlns="http://www.w3.org/2000/svg">
<path d="M8.33326 7.33326H7.80659L7.61993 7.15326C8.41993 6.21993 8.83326 4.9466 8.6066 3.59326C8.29326 1.73993 6.74659 0.259929 4.87993 0.0332621C2.05993 -0.313405 -0.313405 2.05993 0.0332621 4.87993C0.259929 6.74659 1.73993 8.29326 3.59326 8.6066C4.9466 8.83326 6.21993 8.41993 7.15326 7.61993L7.33326 7.80659V8.33326L10.1666 11.1666C10.4399 11.4399 10.8866 11.4399 11.1599 11.1666C11.4333 10.8933 11.4333 10.4466 11.1599 10.1733L8.33326 7.33326ZM4.33326 7.33326C2.67326 7.33326 1.33326 5.99326 1.33326 4.33326C1.33326 2.67326 2.67326 1.33326 4.33326 1.33326C5.99326 1.33326 7.33326 2.67326 7.33326 4.33326C7.33326 5.99326 5.99326 7.33326 4.33326 7.33326Z" fill="#9E9E9E"/>
</svg>
