<svg width="40" height="40" viewBox="0 0 40 40" fill="none" xmlns="http://www.w3.org/2000/svg">
<path d="M4 0H36V40H4V0Z" fill="#2A85CD"/>
<path d="M2 2H38V38H2V2Z" fill="#2A85CD"/>
<path d="M0 4H40V36H0V4Z" fill="#2A85CD"/>
<path d="M0 4H2V36H0V4Z" fill="#1A1B23"/>
<path d="M4 40V38H36V40H4Z" fill="#1A1B23"/>
<path d="M6 36H34V37H6V36Z" fill="white"/>
<path d="M8 35H32V36H8V35Z" fill="white"/>
<path d="M3 34V6H4V34H3Z" fill="white"/>
<path d="M4 32V8H5V32H4Z" fill="white"/>
<path d="M2 38V36H4V38H2Z" fill="#1A1B23"/>
<path d="M36 38V36H38V38H36Z" fill="#1A1B23"/>
<path d="M2 4V2H4V4H2Z" fill="#1A1B23"/>
</svg>
