<svg width="25" height="25" viewBox="0 0 25 25" fill="none" xmlns="http://www.w3.org/2000/svg">
<path d="M18 7.75L20.1011 7.75L18.4749 6.41953L12.9749 1.91953L12.5 1.53095L12.0251 1.91953L6.52507 6.41953L4.89895 7.75L7 7.75L9 7.75H10.4506V17.0375V17.7875H11.2006H13.7994H14.5494V17.0375V7.75H16L18 7.75ZM8.25 10.2233V9.47327H7.5H4.625C3.77463 9.47327 2.97152 9.69314 2.35788 10.0914C1.74995 10.4859 1.25 11.1181 1.25 11.9268V21.2964C1.25 22.1021 1.75126 22.7337 2.35689 23.1281C2.96977 23.5272 3.77291 23.75 4.625 23.75H20.375C21.2216 23.75 22.0239 23.5267 22.6372 23.1287C23.2419 22.7362 23.75 22.1052 23.75 21.2964V11.9268C23.75 11.115 23.2432 10.4833 22.6362 10.0907C22.0222 9.69361 21.2198 9.47327 20.375 9.47327H17.5H16.75V10.2233V11.9268V12.6768H17.5H19.625V20.5464H5.375V12.6768H7.5H8.25V11.9268V10.2233Z" fill="white" stroke="#1B68AE" stroke-width="1.5"/>
</svg>
